<svg width="32" height="30" viewBox="0 0 32 30" fill="none" xmlns="http://www.w3.org/2000/svg">
<path d="M15.9987 29.6696C24.8353 29.6696 31.9987 23.0278 31.9987 14.8348C31.9987 6.64176 24.8353 0 15.9987 0C7.16211 0 -0.00134277 6.64176 -0.00134277 14.8348C-0.00134277 23.0278 7.16211 29.6696 15.9987 29.6696Z" fill="#F4A312"/>
<path d="M15.9987 5.80493L29.2161 14.8348L15.9987 23.8647L2.78125 14.8348L15.9987 5.80493Z" fill="white"/>
<path d="M15.9985 19.9946C19.0721 19.9946 21.5637 17.6844 21.5637 14.8347C21.5637 11.985 19.0721 9.6748 15.9985 9.6748C12.925 9.6748 10.4333 11.985 10.4333 14.8347C10.4333 17.6844 12.925 19.9946 15.9985 19.9946Z" fill="white"/>
<path d="M13.216 14.5122C12.2482 14.5122 11.3143 14.6487 10.4352 14.9019C10.4741 17.7205 12.9494 19.9947 15.9986 19.9947C17.8841 19.9947 19.5494 19.1244 20.5561 17.7945C18.8338 15.7954 16.1837 14.5122 13.216 14.5122ZM21.4607 15.8233C21.5291 15.4976 21.5637 15.1665 21.5639 14.8347C21.5639 11.9849 19.0723 9.6748 15.9987 9.6748C13.7053 9.6748 11.7366 10.9613 10.8846 12.7982C11.6516 12.651 12.4328 12.577 13.2161 12.5773C16.4484 12.5772 19.3726 13.823 21.4607 15.8233Z" fill="#F4A312"/>
</svg>
