<?xml version="1.0" encoding="utf-8"?>
<!-- Generator: Adobe Illustrator 28.3.0, SVG Export Plug-In . SVG Version: 6.00 Build 0)  -->
<svg version="1.1" id="Camada_1" xmlns="http://www.w3.org/2000/svg" xmlns:xlink="http://www.w3.org/1999/xlink" x="0px" y="0px"
	 viewBox="0 0 32 30" style="enable-background:new 0 0 32 30;" xml:space="preserve">
<style type="text/css">
	.st0{fill:#F4A312;}
	.st1{fill:#FFFFFF;}
</style>
<ellipse class="st0" cx="16" cy="14.8" rx="16" ry="14.8"/>
<path class="st0" d="M16.3,1.6c-8.6,0-15.5,6-15.5,13.3s6.9,13.3,15.5,13.3s15.5-6,15.5-13.3S24.8,1.6,16.3,1.6z M21.1,14.7l-7,9
	c-0.1,0.2-0.4,0.2-0.6,0.1c-0.2-0.1-0.3-0.4-0.2-0.6l1.8-5.9h-3.3c-0.2,0-0.3-0.1-0.4-0.2c-0.1-0.1-0.1-0.3-0.1-0.4l2.5-8.5
	C13.8,8,14,7.8,14.2,7.8h4c0.2,0,0.3,0.1,0.4,0.2s0.1,0.3,0.1,0.5l-1.8,5.3h3.8c0.2,0,0.4,0.1,0.4,0.3
	C21.2,14.3,21.2,14.5,21.1,14.7z"/>
<path class="st1" d="M20.7,13.8h-3.8l1.8-5.3c0.1-0.2,0-0.3-0.1-0.5s-0.2-0.2-0.4-0.2h-4c-0.2,0-0.4,0.1-0.5,0.4l-2.5,8.5
	c0,0.2,0,0.3,0.1,0.4c0.1,0.1,0.2,0.2,0.4,0.2H15l-1.8,5.9c-0.1,0.2,0,0.5,0.2,0.6c0.2,0.1,0.5,0.1,0.6-0.1l7-9
	c0.1-0.2,0.1-0.4,0.1-0.5C21.1,14,20.9,13.8,20.7,13.8z"/>
</svg>
