<svg width="31" height="31" viewBox="0 0 31 31" fill="none" xmlns="http://www.w3.org/2000/svg">
<path d="M3.0437 17.3877H5.8108V19.3984H3.0437V17.3877Z" fill="#F4A312"/>
<path d="M29.1822 12.0617H1.81507C0.811876 12.0617 -0.00134277 12.8623 -0.00134277 13.8498V29.0536C-0.00134277 30.0411 0.811876 30.8416 1.81507 30.8416H29.1822C30.1854 30.8416 30.9986 30.0411 30.9986 29.0535V13.8498C30.9986 12.8623 30.1854 12.0617 29.1822 12.0617ZM7.32436 26.9616H2.82852V25.1734H7.32436V26.9616ZM9.34931 19.6965C9.34931 20.5181 8.67028 21.1865 7.83566 21.1865H4.46302C3.6284 21.1865 2.94937 20.5181 2.94937 19.6965V17.0897C2.94937 16.2681 3.6284 15.5997 4.46302 15.5997H7.8356C8.67022 15.5997 9.34925 16.2681 9.34925 17.0897L9.34931 19.6965ZM14.2725 26.9616H9.77662V25.1734H14.2725V26.9616ZM21.2206 26.9616H16.7248V25.1734H21.2206V26.9616ZM28.1687 26.9616H23.6729V25.1734H28.1687V26.9616ZM24.3827 4.62199L20.5023 0.802046C19.793 0.103745 18.6429 0.103745 17.9335 0.802046L8.31215 10.2736H18.9697L24.3827 4.62199ZM24.2711 10.2736L27.1113 7.30816L25.6677 5.88696L21.4662 10.2736H24.2711ZM29.1822 10.2736C29.5723 10.2736 29.948 10.3352 30.3006 10.4478L28.3963 8.57313L26.7676 10.2736L29.1822 10.2736Z" fill="#F4A312"/>
</svg>
