<svg width="18" height="18" viewBox="0 0 18 18" fill="none" xmlns="http://www.w3.org/2000/svg">
<path fill-rule="evenodd" clip-rule="evenodd" d="M6.82845 11.1716C6.63319 10.9763 6.3166 10.9763 6.12134 11.1716L2.02515 15.2678L2.02515 12.5C2.02515 12.2239 1.80129 12 1.52515 12C1.249 12 1.02515 12.2239 1.02515 12.5L1.02515 16.4749C1.02515 16.751 1.249 16.9749 1.52515 16.9749L5.49998 16.9749C5.77612 16.9749 5.99998 16.751 5.99998 16.4749C5.99998 16.1987 5.77612 15.9749 5.49998 15.9749L2.73225 15.9749L6.82845 11.8787C7.02371 11.6834 7.02371 11.3669 6.82845 11.1716Z" fill="#092257" stroke="#092257" stroke-width="0.5" stroke-linecap="round" stroke-linejoin="round"/>
<path fill-rule="evenodd" clip-rule="evenodd" d="M11.1716 11.1716C11.3668 10.9763 11.6834 10.9763 11.8787 11.1716L15.9749 15.2678L15.9749 12.5C15.9749 12.2239 16.1987 12 16.4749 12C16.751 12 16.9749 12.2239 16.9749 12.5L16.9749 16.4749C16.9749 16.751 16.751 16.9749 16.4749 16.9749L12.5 16.9749C12.2239 16.9749 12 16.751 12 16.4749C12 16.1987 12.2239 15.9749 12.5 15.9749L15.2677 15.9749L11.1716 11.8787C10.9763 11.6834 10.9763 11.3669 11.1716 11.1716Z" fill="#092257" stroke="#092257" stroke-width="0.5" stroke-linecap="round" stroke-linejoin="round"/>
<path fill-rule="evenodd" clip-rule="evenodd" d="M11.1716 6.82841C11.3668 7.02367 11.6834 7.02367 11.8787 6.82841L15.9749 2.73221L15.9749 5.49999C15.9749 5.77613 16.1987 5.99999 16.4749 5.99999C16.751 5.99999 16.9749 5.77613 16.9749 5.49999L16.9749 1.52511C16.9749 1.24896 16.751 1.02511 16.4749 1.02511L12.5 1.02511C12.2239 1.02511 12 1.24897 12 1.52511C12 1.80125 12.2239 2.02511 12.5 2.02511L15.2677 2.02511L11.1716 6.1213C10.9763 6.31656 10.9763 6.63314 11.1716 6.82841Z" fill="#092257" stroke="#092257" stroke-width="0.5" stroke-linecap="round" stroke-linejoin="round"/>
<path fill-rule="evenodd" clip-rule="evenodd" d="M6.82845 6.82841C6.63319 7.02367 6.3166 7.02367 6.12134 6.82841L2.02515 2.73221L2.02515 5.49999C2.02515 5.77613 1.80129 5.99999 1.52515 5.99999C1.249 5.99999 1.02515 5.77613 1.02515 5.49999L1.02515 1.52511C1.02515 1.24896 1.249 1.02511 1.52515 1.02511L5.49998 1.02511C5.77612 1.02511 5.99998 1.24897 5.99998 1.52511C5.99998 1.80125 5.77612 2.02511 5.49998 2.02511L2.73225 2.02511L6.82845 6.1213C7.02371 6.31656 7.02371 6.63314 6.82845 6.82841Z" fill="#092257" stroke="#092257" stroke-width="0.5" stroke-linecap="round" stroke-linejoin="round"/>
</svg>
