<?xml version="1.0" encoding="UTF-8"?>
<svg id="Camada_2" data-name="Camada 2" xmlns="http://www.w3.org/2000/svg" viewBox="0 0 73.42 91.82">
  <defs>
    <style>
      .cls-1 {
        fill-rule: evenodd;
      }

      .cls-1, .cls-2, .cls-3 {
        stroke-width: 0px;
      }

      .cls-1, .cls-3 {
        fill: #f4a312;
      }

      .cls-2 {
        fill: #002356;
      }
    </style>
  </defs>
  <g id="Camada_1-2" data-name="Camada 1">
    <g>
      <path class="cls-2" d="M15.4,24.69l46.07,2,5.06.66,4.24,3.96-.66,37.27s-23.39,13.43-24.77,13.32-30.33-4.84-30.33-4.84l-12.22-8.48,1.27-41.01,11.34-2.88Z"/>
      <g>
        <path class="cls-1" d="M16.78,40.95c.22-2.85.54-5.58,1-8.15-.1,1.08-.15,2.17-.15,3.28,0,1.67.12,3.3.34,4.88-.39,0-.79-.01-1.18-.01M38.6,8.07c-.32.03-.64.06-.96.1V2.95C19.91,7.6,13.14,20.42,16.74,40.95c-.68,0-1.36,0-2.05.01.12,1.3,0,4.96,0,4.96,4.5,6.71,8.07,12.64,12.31,19.35h.06c-2.65,1.7-7.02,11.95-7.02,14.26,4.29,0,10.28,9.63,16.67,9.63,7.35,0,12.26-9.93,17.2-9.93,0-2.39-2.96-12.71-4.52-14.14l6.44-7.29c-1.64-2.5-4.82-6.49-6.82-8.98-.75-.93-11.06-11.47-5.61-13.5,1.19-.44,7.01.25,5.18,9.34,1.13,3.16,5.95,2.69,6.31,2.4.31-.26-1.15-2.37.55-2.3,1.52.06,1.27,2.79,2.57,2.97,1.09,0,4.68-2.74,5.05-5.81.22-2.28.14-3.4-.56-5.83-.74-2.14-2.19-4.23-2.4-6.36-.28-2.77.08-5.51-.95-7.35-.19-4.46-6.3-10.05-12.11-12.74V3.4h-3.74v4.93c-.45-.1-.89-.18-1.31-.22.36-.86.58-2,.58-3.25,0-2.68-1.01-4.86-2.25-4.86s-2.25,2.18-2.25,4.86c0,1.23.21,2.35.56,3.2Z"/>
        <polygon class="cls-3" points="36.71 91.82 0 70.63 0 28.24 13.09 20.68 15.4 24.69 4.63 30.91 4.63 67.95 36.71 86.48 68.79 67.95 68.79 30.91 61.48 26.69 63.79 22.68 66.03 23.97 64.88 25.98 66.03 23.97 73.42 28.24 73.42 70.63 36.71 91.82"/>
      </g>
    </g>
  </g>
</svg>