<svg width="33" height="31" viewBox="0 0 33 31" fill="none" xmlns="http://www.w3.org/2000/svg">
<path d="M15.3627 21.6878L9.50446 16.3494C9.12689 16.0053 8.51472 16.0053 8.13716 16.3494L8.1371 16.3494L0.281943 23.5084C0.165378 23.6145 0.0805374 23.7461 0.0354815 23.8906C-0.00957451 24.035 -0.0133497 24.1876 0.0245145 24.3338C0.0623787 24.4799 0.140625 24.6149 0.25182 24.7257C0.363014 24.8366 0.503465 24.9197 0.659828 24.9671L4.59453 26.1622L5.90594 29.7478C5.95803 29.8903 6.04922 30.0183 6.17087 30.1196C6.29252 30.221 6.44058 30.2923 6.60098 30.3268C6.76138 30.3613 6.9288 30.3578 7.08733 30.3168C7.24586 30.2757 7.39024 30.1984 7.50675 30.0922L15.3627 22.9338C15.7403 22.5898 15.7403 22.0319 15.3627 21.6878Z" fill="#F4A312"/>
<path d="M15.3628 21.688L12.4337 19.0188L4.5946 26.1624L5.90602 29.748C5.9581 29.8905 6.0493 30.0185 6.17095 30.1198C6.2926 30.2211 6.44065 30.2924 6.60105 30.3269C6.76146 30.3614 6.92887 30.358 7.08741 30.3169C7.24594 30.2759 7.39032 30.1986 7.50683 30.0923L15.3628 22.934C15.7404 22.59 15.7404 22.0321 15.3628 21.688Z" fill="#F4A312"/>
<path d="M23.4927 16.3494L17.6345 21.6879C17.2569 22.032 17.2569 22.5898 17.6345 22.9339L17.6345 22.9339L25.4905 30.0922C25.6071 30.1985 25.7514 30.2758 25.91 30.3168C26.0685 30.3579 26.2359 30.3613 26.3963 30.3268C26.5567 30.2923 26.7048 30.221 26.8264 30.1197C26.9481 30.0184 27.0393 29.8904 27.0913 29.7479L28.4028 26.1623L32.3375 24.9672C32.4938 24.9197 32.6343 24.8366 32.7455 24.7258C32.8567 24.6149 32.9349 24.48 32.9728 24.3338C33.0106 24.1877 33.0069 24.0351 32.9618 23.8906C32.9168 23.7462 32.8319 23.6146 32.7153 23.5084L24.8599 16.3494C24.4824 16.0053 23.8703 16.0053 23.4927 16.3494Z" fill="#F4A312"/>
<path d="M23.4926 16.3494L20.5635 19.0186L28.4026 26.1622L32.3373 24.9671C32.4936 24.9197 32.6341 24.8366 32.7453 24.7257C32.8565 24.6149 32.9347 24.4799 32.9726 24.3338C33.0105 24.1876 33.0067 24.035 32.9616 23.8906C32.9166 23.7461 32.8317 23.6145 32.7152 23.5084L24.8598 16.3494C24.4823 16.0053 23.8701 16.0053 23.4926 16.3494Z" fill="#F4A312"/>
<path d="M29.6586 13.0572C29.8091 12.8975 29.8918 12.694 29.8918 12.4835C29.8918 12.273 29.8092 12.0694 29.6587 11.9097L28.5595 10.7423L29.2089 9.32285C29.2978 9.12855 29.3075 8.91167 29.2361 8.71147C29.1647 8.51127 29.017 8.34099 28.8197 8.23145L27.3786 7.43113L27.5152 5.89852C27.5339 5.68869 27.4696 5.47969 27.3338 5.30937C27.198 5.13904 26.9998 5.01865 26.7751 4.96998L25.1334 4.6147L24.7434 3.11821C24.6331 2.69491 24.1994 2.40858 23.7246 2.44364L22.0423 2.56816L21.164 1.2548C20.9156 0.883248 20.4066 0.732829 19.9662 0.900163L18.4088 1.49232L17.1283 0.490785C16.953 0.35369 16.7297 0.27832 16.4987 0.27832C16.2677 0.27832 16.0443 0.35369 15.869 0.490785L14.5886 1.49226L13.0311 0.900104C12.8179 0.819051 12.5799 0.810255 12.3602 0.875308C12.1405 0.940362 11.9536 1.07497 11.8334 1.25474L10.9551 2.56816L9.27286 2.44364C8.79707 2.40893 8.36434 2.69491 8.25406 3.11821L7.86405 4.6147L6.22232 4.97004C5.99756 5.01871 5.79935 5.1391 5.66358 5.30943C5.52781 5.47975 5.46345 5.68875 5.48215 5.89857L5.61879 7.43119L4.17769 8.2315C3.98043 8.34105 3.83273 8.51133 3.76133 8.71153C3.68993 8.91173 3.69956 9.12861 3.78846 9.32291L4.43789 10.7424L3.33865 11.9097C3.18824 12.0695 3.10557 12.273 3.10559 12.4835C3.10561 12.694 3.18833 12.8976 3.33878 13.0573L4.43782 14.2242L3.78853 15.6436C3.69962 15.8379 3.69 16.0548 3.7614 16.255C3.83279 16.4552 3.98049 16.6255 4.17776 16.735L5.61885 17.5353L5.48221 19.0679C5.46351 19.2778 5.52787 19.4868 5.66364 19.6571C5.79942 19.8274 5.99763 19.9478 6.22238 19.9965L7.86405 20.3517L8.25406 21.8482C8.3644 22.2715 8.79713 22.5575 9.27286 22.5228L10.9551 22.3983L11.8334 23.7116C11.9537 23.8914 12.1405 24.026 12.3603 24.0911C12.58 24.1561 12.818 24.1473 13.0312 24.0663L14.5886 23.4741L15.8691 24.4756C16.0444 24.6127 16.2677 24.6881 16.4987 24.6881C16.7297 24.6881 16.9531 24.6127 17.1284 24.4756L18.4088 23.4741L19.9662 24.0663C20.1795 24.1473 20.4175 24.1561 20.6372 24.091C20.8569 24.026 21.0438 23.8914 21.164 23.7116L22.0423 22.3983L23.7246 22.5228C24.1994 22.5579 24.6332 22.2715 24.7434 21.8482L25.1334 20.3517L26.7751 19.9965C26.9998 19.9478 27.198 19.8274 27.3338 19.6571C27.4696 19.4868 27.5339 19.2778 27.5152 19.0679L27.3786 17.5353L28.8197 16.735C29.017 16.6255 29.1647 16.4552 29.2361 16.255C29.3075 16.0548 29.2978 15.8379 29.2089 15.6436L28.5595 14.2242L29.6586 13.0572Z" fill="#F4A312"/>
<path d="M17.1284 24.4756L18.4088 23.4741L19.9662 24.0663C20.1794 24.1473 20.4174 24.1561 20.6371 24.091C20.8568 24.026 21.0437 23.8914 21.164 23.7116L22.0423 22.3983L23.7246 22.5228C24.1994 22.5579 24.6331 22.2716 24.7434 21.8483L25.1334 20.3518L26.775 19.9965C26.9998 19.9478 27.198 19.8274 27.3338 19.6571C27.4695 19.4868 27.5339 19.2778 27.5152 19.068L27.3786 17.5354L28.8197 16.735C29.0169 16.6255 29.1646 16.4552 29.236 16.255C29.3074 16.0548 29.2978 15.8379 29.2089 15.6436L28.5595 14.2243L29.6585 13.0573C29.809 12.8976 29.8917 12.6941 29.8917 12.4836C29.8917 12.2731 29.809 12.0695 29.6586 11.9098L28.5595 10.7424L29.2089 9.32294C29.2978 9.12865 29.3074 8.91177 29.236 8.71157C29.1646 8.51137 29.0169 8.34108 28.8197 8.23154L27.3786 7.43122L27.5152 5.89861C27.5339 5.68878 27.4695 5.47979 27.3338 5.30947C27.198 5.13915 26.9998 5.01876 26.775 4.97008L25.1334 4.6148L24.7434 3.1183C24.6331 2.695 24.1994 2.40867 23.7246 2.44374L22.0423 2.56826L21.164 1.25496C20.9156 0.883402 20.4066 0.732983 19.9662 0.900317L18.4088 1.49248L17.1283 0.490763C16.9531 0.353532 16.7297 0.27815 16.4987 0.278321V24.688C16.7297 24.6882 16.9531 24.6128 17.1284 24.4756Z" fill="#F4A312"/>
<path d="M14.7794 18.7684L9.08395 13.5782C8.70639 13.2342 8.70639 12.6764 9.08395 12.3323L12.0129 9.66313C12.3904 9.31906 13.0026 9.31906 13.3802 9.66313L15.463 11.5611L20.1347 7.30395C20.5122 6.95988 21.1243 6.95988 21.5019 7.30395L24.4309 9.97307C24.8084 10.3171 24.8084 10.8749 24.4309 11.219L16.1467 18.7684C15.7691 19.1125 15.1569 19.1124 14.7794 18.7684Z" fill="white"/>
<path d="M24.431 9.97307L21.502 7.30395C21.1245 6.95988 20.5124 6.95988 20.1348 7.30395L16.4987 10.6174V18.4476L24.431 11.2189C24.8087 10.8749 24.8087 10.3171 24.431 9.97307Z" fill="white"/>
</svg>
