<?xml version="1.0" encoding="utf-8"?>
<!-- Generator: Adobe Illustrator 28.3.0, SVG Export Plug-In . SVG Version: 6.00 Build 0)  -->
<svg version="1.1" id="Camada_2_00000047019984743801998830000016546798213078271638_"
	 xmlns="http://www.w3.org/2000/svg" xmlns:xlink="http://www.w3.org/1999/xlink" x="0px" y="0px" viewBox="0 0 140.9 33"
	 style="enable-background:new 0 0 140.9 33;" xml:space="preserve">
<style type="text/css">
	.st0{fill-rule:evenodd;clip-rule:evenodd;fill:#FFB94A;}
	.st1{fill:#FFB94A;}
	.st2{fill:#FFFFFF;}
</style>
<g>
	<g>
		<g>
			<path class="st0" d="M6.5,14.7c0.1-1,0.2-2,0.4-2.9c0,0.4-0.1,0.8-0.1,1.2c0,0.6,0,1.2,0.1,1.7C6.8,14.7,6.6,14.7,6.5,14.7
				 M14.3,3c-0.1,0-0.2,0-0.3,0V1.2C7.6,2.8,5.2,7.4,6.5,14.7c-0.2,0-0.5,0-0.7,0c0,0.5,0,1.8,0,1.8c1.6,2.4,2.9,4.5,4.4,6.9l0,0
				c-0.9,0.6-2.5,4.3-2.5,5.1c1.5,0,3.7,3.4,5.9,3.4c2.6,0,4.4-3.5,6.1-3.5c0-0.9-1.1-4.5-1.6-5l2.3-2.6c-0.6-0.9-1.7-2.3-2.4-3.2
				c-0.3-0.3-3.9-4.1-2-4.8c0.4-0.2,2.5,0.1,1.8,3.3c0.4,1.1,2.1,1,2.2,0.9s-0.4-0.8,0.2-0.8c0.5,0,0.5,1,0.9,1.1
				c0.4,0,1.7-1,1.8-2.1c0.1-0.8,0-1.2-0.2-2.1c-0.3-0.8-0.8-1.5-0.9-2.3c-0.1-1,0-2-0.3-2.6c-0.1-1.6-2.2-3.6-4.3-4.5V1.3h-1.3v1.8
				c-0.2,0-0.3-0.1-0.5-0.1c0.1-0.3,0.2-0.7,0.2-1.2c0-1-0.4-1.7-0.8-1.7c-0.4,0-0.8,0.8-0.8,1.7C14.1,2.3,14.1,2.7,14.3,3z"/>
		</g>
		<g>
			<polygon class="st1" points="13.6,32.9 0.5,25.3 0.5,10.2 5.2,7.5 6,8.9 2.1,11.2 2.1,24.4 13.6,31 25,24.4 25,11.2 22.4,9.6 
				23.2,8.2 24,8.7 23.6,9.4 24,8.7 26.7,10.2 26.7,25.3 			"/>
		</g>
	</g>
	<g>
		<path class="st2" d="M129.9,9.5h3.4v9.7h3.5V9.5h3.4V6.1h-10.3V9.5z M122.7,11.7l1.4,2.9h-2.7L122.7,11.7z M119.4,19.2l0.8-1.7
			h5.3l0.8,1.7h3.4l-6.3-13.1h-1.5l-6,13.1H119.4z M102.1,6.1h-1.5l0.1,13.1h3.5l-0.1-6.7l3.5,3.1l3.4-3.1v6.7h3.4l-0.1-13.1h-1.6
			l-5.2,4.8L102.1,6.1z M92.5,6.1l-4.3,4.4l-0.1-4.4h-3.4v13.1h3.6l-0.1-3.8l0.8-0.8l4.7,4.6h4.8l-7.2-7.1l5.9-6
			C97.2,6.1,92.5,6.1,92.5,6.1z M82.3,8c-1.2-1.2-2.8-1.9-4.6-1.9c-3.6,0-6.5,2.9-6.4,6.5c0,3.6,3,6.5,6.6,6.5
			c1.8,0,3.4-0.7,4.6-1.9L80,14.8c-0.5,0.6-1.3,0.9-2.2,0.9c-1.8,0-3.1-1.3-3.1-3.1s1.2-3.1,3-3.1c0.9,0,1.7,0.3,2.2,0.9L82.3,8z
			 M61.4,19.2h8.1v-2.8h-4.7V14h4.1v-2.9h-4.1V9h4.7V6.2h-8L61.4,19.2z M47.8,6.1v13h3.5v-5h4.2l0.1,5H59v-13h-3.6l0.1,4.6h-4.1V6.1
			C51.4,6.1,47.8,6.1,47.8,6.1z M45.4,8c-1.2-1.2-2.8-1.9-4.6-1.9c-3.6,0-6.5,2.9-6.4,6.5c0,3.6,3,6.5,6.6,6.5
			c1.8,0,3.4-0.7,4.6-1.9l-2.5-2.4c-0.5,0.6-1.3,0.9-2.2,0.9c-1.8,0-3.1-1.3-3.1-3.1s1.2-3.1,3-3.1c0.9,0,1.7,0.3,2.2,0.9L45.4,8z"
			/>
	</g>
	<g>
		<path class="st2" d="M36.7,22.5l1.7,4.9h0.1l1.7-4.9h0.7l-2.1,5.8h-0.7l-2.1-5.8H36.7z"/>
		<path class="st2" d="M42.7,22.5v5.8H42v-5.8H42.7z"/>
		<path class="st2" d="M46.1,28.4c-0.4,0-0.8-0.1-1.1-0.2c-0.3-0.1-0.5-0.3-0.7-0.6c-0.2-0.2-0.3-0.5-0.3-0.8h0.7
			c0,0.2,0.1,0.4,0.2,0.5c0.1,0.1,0.3,0.2,0.5,0.3s0.4,0.1,0.6,0.1c0.3,0,0.5,0,0.7-0.1c0.2-0.1,0.4-0.2,0.5-0.4
			c0.1-0.2,0.2-0.3,0.2-0.6c0-0.2-0.1-0.3-0.2-0.5c-0.1-0.1-0.3-0.2-0.4-0.3c-0.2-0.1-0.4-0.1-0.6-0.2l-0.7-0.2
			c-0.5-0.1-0.8-0.3-1.1-0.6c-0.3-0.2-0.4-0.6-0.4-1c0-0.3,0.1-0.6,0.3-0.9c0.2-0.2,0.4-0.4,0.7-0.6c0.3-0.1,0.6-0.2,1-0.2
			c0.4,0,0.7,0.1,1,0.2c0.3,0.1,0.5,0.3,0.7,0.5s0.3,0.5,0.3,0.8h-0.7c0-0.3-0.2-0.5-0.4-0.7c-0.2-0.2-0.5-0.2-0.9-0.2
			c-0.3,0-0.5,0-0.7,0.1c-0.2,0.1-0.3,0.2-0.4,0.3c-0.1,0.1-0.2,0.3-0.2,0.5c0,0.2,0.1,0.4,0.2,0.5c0.1,0.1,0.3,0.2,0.5,0.3
			s0.3,0.1,0.5,0.2l0.6,0.2c0.2,0,0.3,0.1,0.5,0.2s0.4,0.2,0.5,0.3c0.2,0.1,0.3,0.3,0.4,0.5c0.1,0.2,0.2,0.4,0.2,0.7
			c0,0.3-0.1,0.6-0.2,0.8s-0.4,0.5-0.7,0.6C46.9,28.3,46.6,28.4,46.1,28.4z"/>
		<path class="st2" d="M49.2,23.1v-0.6h4.4v0.6h-1.8v5.2h-0.7v-5.2H49.2z"/>
		<path class="st2" d="M57,28.4c-0.5,0-0.9-0.1-1.3-0.4s-0.7-0.6-0.9-1c-0.2-0.4-0.3-1-0.3-1.6c0-0.6,0.1-1.1,0.3-1.6
			c0.2-0.4,0.5-0.8,0.9-1s0.8-0.4,1.3-0.4c0.5,0,0.9,0.1,1.3,0.4s0.7,0.6,0.9,1c0.2,0.4,0.3,1,0.3,1.6c0,0.6-0.1,1.1-0.3,1.6
			c-0.2,0.4-0.5,0.8-0.9,1S57.4,28.4,57,28.4z M57,27.7c0.4,0,0.7-0.1,1-0.3c0.3-0.2,0.5-0.4,0.7-0.8c0.2-0.3,0.3-0.8,0.3-1.3
			c0-0.5-0.1-0.9-0.3-1.3s-0.4-0.6-0.7-0.8c-0.3-0.2-0.6-0.3-1-0.3s-0.7,0.1-1,0.3c-0.3,0.2-0.5,0.4-0.7,0.8s-0.3,0.8-0.3,1.3
			c0,0.5,0.1,0.9,0.3,1.3c0.2,0.3,0.4,0.6,0.7,0.8C56.3,27.6,56.6,27.7,57,27.7z"/>
		<path class="st2" d="M60.9,28.3v-5.8h2c0.5,0,0.8,0.1,1.1,0.2c0.3,0.2,0.5,0.4,0.6,0.6s0.2,0.6,0.2,0.9c0,0.3-0.1,0.6-0.2,0.9
			s-0.4,0.5-0.6,0.6C63.7,26,63.3,26,62.8,26h-1.6v-0.6h1.6c0.3,0,0.6,0,0.8-0.1c0.2-0.1,0.3-0.2,0.4-0.4s0.1-0.4,0.1-0.6
			c0-0.2,0-0.4-0.1-0.6c-0.1-0.2-0.2-0.3-0.4-0.4c-0.2-0.1-0.4-0.1-0.8-0.1h-1.2v5.2H60.9z M64.2,28.3l-1.4-2.6h0.8l1.4,2.6H64.2z"
			/>
		<path class="st2" d="M66.9,22.5v5.8h-0.7v-5.8H66.9z"/>
		<path class="st2" d="M68.7,28.3h-0.7l2.1-5.8h0.7l2.1,5.8h-0.7l-1.7-4.9h0L68.7,28.3z M68.9,26h3v0.6h-3V26z"/>
		<path class="st2" d="M75.8,28.4c-0.4,0-0.8-0.1-1.1-0.2c-0.3-0.1-0.5-0.3-0.7-0.6c-0.2-0.2-0.3-0.5-0.3-0.8h0.7
			c0,0.2,0.1,0.4,0.2,0.5c0.1,0.1,0.3,0.2,0.5,0.3s0.4,0.1,0.6,0.1c0.3,0,0.5,0,0.7-0.1c0.2-0.1,0.4-0.2,0.5-0.4
			c0.1-0.2,0.2-0.3,0.2-0.6c0-0.2-0.1-0.3-0.2-0.5c-0.1-0.1-0.3-0.2-0.4-0.3c-0.2-0.1-0.4-0.1-0.6-0.2l-0.7-0.2
			c-0.5-0.1-0.8-0.3-1.1-0.6c-0.3-0.2-0.4-0.6-0.4-1c0-0.3,0.1-0.6,0.3-0.9c0.2-0.2,0.4-0.4,0.7-0.6c0.3-0.1,0.6-0.2,1-0.2
			c0.4,0,0.7,0.1,1,0.2c0.3,0.1,0.5,0.3,0.7,0.5s0.3,0.5,0.3,0.8h-0.7c0-0.3-0.2-0.5-0.4-0.7c-0.2-0.2-0.5-0.2-0.9-0.2
			c-0.3,0-0.5,0-0.7,0.1c-0.2,0.1-0.3,0.2-0.4,0.3c-0.1,0.1-0.2,0.3-0.2,0.5c0,0.2,0.1,0.4,0.2,0.5c0.1,0.1,0.3,0.2,0.5,0.3
			s0.3,0.1,0.5,0.2l0.6,0.2c0.2,0,0.3,0.1,0.5,0.2s0.4,0.2,0.5,0.3c0.2,0.1,0.3,0.3,0.4,0.5c0.1,0.2,0.2,0.4,0.2,0.7
			c0,0.3-0.1,0.6-0.2,0.8S77.3,28,77,28.2C76.7,28.3,76.3,28.4,75.8,28.4z"/>
		<path class="st2" d="M81.9,28.3h-0.7l2.1-5.8h0.7l2.1,5.8h-0.7l-1.7-4.9h0L81.9,28.3z M82.2,26h3v0.6h-3V26z"/>
		<path class="st2" d="M91.1,22.5h0.7v3.9c0,0.4-0.1,0.8-0.3,1.1c-0.2,0.3-0.4,0.6-0.8,0.7s-0.7,0.3-1.2,0.3s-0.9-0.1-1.2-0.3
			s-0.6-0.4-0.8-0.7c-0.2-0.3-0.3-0.7-0.3-1.1v-3.9H88v3.8c0,0.3,0.1,0.5,0.2,0.8c0.1,0.2,0.3,0.4,0.5,0.5c0.2,0.1,0.5,0.2,0.8,0.2
			s0.6-0.1,0.8-0.2c0.2-0.1,0.4-0.3,0.5-0.5c0.1-0.2,0.2-0.5,0.2-0.8V22.5z"/>
		<path class="st2" d="M93,23.1v-0.6h4.4v0.6h-1.8v5.2h-0.7v-5.2H93z"/>
		<path class="st2" d="M100.8,28.4c-0.5,0-0.9-0.1-1.3-0.4s-0.7-0.6-0.9-1c-0.2-0.4-0.3-1-0.3-1.6c0-0.6,0.1-1.1,0.3-1.6
			c0.2-0.4,0.5-0.8,0.9-1s0.8-0.4,1.3-0.4c0.5,0,0.9,0.1,1.3,0.4s0.7,0.6,0.9,1c0.2,0.4,0.3,1,0.3,1.6c0,0.6-0.1,1.1-0.3,1.6
			c-0.2,0.4-0.5,0.8-0.9,1S101.3,28.4,100.8,28.4z M100.8,27.7c0.4,0,0.7-0.1,1-0.3c0.3-0.2,0.5-0.4,0.7-0.8
			c0.2-0.3,0.3-0.8,0.3-1.3c0-0.5-0.1-0.9-0.3-1.3s-0.4-0.6-0.7-0.8c-0.3-0.2-0.6-0.3-1-0.3s-0.7,0.1-1,0.3
			c-0.3,0.2-0.5,0.4-0.7,0.8s-0.3,0.8-0.3,1.3c0,0.5,0.1,0.9,0.3,1.3c0.2,0.3,0.4,0.6,0.7,0.8C100.1,27.6,100.4,27.7,100.8,27.7z"/>
		<path class="st2" d="M104.7,22.5h0.8l2,4.8h0.1l2-4.8h0.9v5.8h-0.7v-4.4h-0.1l-1.8,4.4h-0.6l-1.8-4.4h-0.1v4.4h-0.7V22.5z"/>
		<path class="st2" d="M114.4,28.4c-0.5,0-0.9-0.1-1.3-0.4s-0.7-0.6-0.9-1c-0.2-0.4-0.3-1-0.3-1.6c0-0.6,0.1-1.1,0.3-1.6
			c0.2-0.4,0.5-0.8,0.9-1s0.8-0.4,1.3-0.4c0.5,0,0.9,0.1,1.3,0.4s0.7,0.6,0.9,1c0.2,0.4,0.3,1,0.3,1.6c0,0.6-0.1,1.1-0.3,1.6
			c-0.2,0.4-0.5,0.8-0.9,1S114.9,28.4,114.4,28.4z M114.4,27.7c0.4,0,0.7-0.1,1-0.3c0.3-0.2,0.5-0.4,0.7-0.8
			c0.2-0.3,0.3-0.8,0.3-1.3c0-0.5-0.1-0.9-0.3-1.3s-0.4-0.6-0.7-0.8c-0.3-0.2-0.6-0.3-1-0.3s-0.7,0.1-1,0.3
			c-0.3,0.2-0.5,0.4-0.7,0.8s-0.3,0.8-0.3,1.3c0,0.5,0.1,0.9,0.3,1.3c0.2,0.3,0.4,0.6,0.7,0.8C113.7,27.6,114,27.7,114.4,27.7z"/>
		<path class="st2" d="M117.7,23.1v-0.6h4.4v0.6h-1.8v5.2h-0.7v-5.2H117.7z"/>
		<path class="st2" d="M124,22.5v5.8h-0.7v-5.8H124z"/>
		<path class="st2" d="M125.9,22.5l1.7,4.9h0.1l1.7-4.9h0.7l-2.1,5.8h-0.7l-2.1-5.8H125.9z"/>
		<path class="st2" d="M130.9,28.3h-0.7l2.1-5.8h0.7l2.1,5.8h-0.7l-1.7-4.9h0L130.9,28.3z M131.2,26h3v0.6h-3V26z"/>
		<path class="st2" d="M138.1,28.4c-0.4,0-0.8-0.1-1.1-0.2c-0.3-0.1-0.5-0.3-0.7-0.6c-0.2-0.2-0.3-0.5-0.3-0.8h0.7
			c0,0.2,0.1,0.4,0.2,0.5c0.1,0.1,0.3,0.2,0.5,0.3s0.4,0.1,0.6,0.1c0.3,0,0.5,0,0.7-0.1c0.2-0.1,0.4-0.2,0.5-0.4
			c0.1-0.2,0.2-0.3,0.2-0.6c0-0.2-0.1-0.3-0.2-0.5c-0.1-0.1-0.3-0.2-0.4-0.3c-0.2-0.1-0.4-0.1-0.6-0.2l-0.7-0.2
			c-0.5-0.1-0.8-0.3-1.1-0.6c-0.3-0.2-0.4-0.6-0.4-1c0-0.3,0.1-0.6,0.3-0.9c0.2-0.2,0.4-0.4,0.7-0.6c0.3-0.1,0.6-0.2,1-0.2
			c0.4,0,0.7,0.1,1,0.2c0.3,0.1,0.5,0.3,0.7,0.5s0.3,0.5,0.3,0.8h-0.7c0-0.3-0.2-0.5-0.4-0.7c-0.2-0.2-0.5-0.2-0.9-0.2
			c-0.3,0-0.5,0-0.7,0.1c-0.2,0.1-0.3,0.2-0.4,0.3c-0.1,0.1-0.2,0.3-0.2,0.5c0,0.2,0.1,0.4,0.2,0.5c0.1,0.1,0.3,0.2,0.5,0.3
			s0.3,0.1,0.5,0.2l0.6,0.2c0.2,0,0.3,0.1,0.5,0.2s0.4,0.2,0.5,0.3c0.2,0.1,0.3,0.3,0.4,0.5c0.1,0.2,0.2,0.4,0.2,0.7
			c0,0.3-0.1,0.6-0.2,0.8s-0.4,0.5-0.7,0.6C138.9,28.3,138.5,28.4,138.1,28.4z"/>
	</g>
</g>
</svg>
