<svg width="12" height="16" viewBox="0 0 12 16" fill="none" xmlns="http://www.w3.org/2000/svg">
<path d="M10 0H2C0.895431 0 0 0.89543 0 2V14C0 15.1046 0.895431 16 2 16H10C11.1046 16 12 15.1046 12 14V2C12 0.89543 11.1046 0 10 0ZM8.85355 6.85355L5.85355 9.85355C5.75979 9.94732 5.63261 10 5.5 10C5.36739 10 5.24021 9.94732 5.14645 9.85355L3.64645 8.35355C3.45118 8.15829 3.45118 7.84171 3.64645 7.64645C3.84171 7.45118 4.15829 7.45118 4.35355 7.64645L5.5 8.79289L8.14645 6.14645C8.34171 5.95118 8.65829 5.95118 8.85355 6.14645C9.04882 6.34171 9.04882 6.65829 8.85355 6.85355Z" fill="url(#paint0_linear_1287_6274)"/>
<defs>
<linearGradient id="paint0_linear_1287_6274" x1="-8.9407e-08" y1="8" x2="12" y2="8" gradientUnits="userSpaceOnUse">
<stop stop-color="#FFD503"/>
<stop offset="1" stop-color="#FFEC8E"/>
</linearGradient>
</defs>
</svg>
