<svg width="47" height="54" viewBox="0 0 47 54" fill="none" xmlns="http://www.w3.org/2000/svg">
<path d="M13.9633 27.1912C21.467 27.1912 27.5533 21.105 27.5533 13.6012C27.5533 6.09749 21.467 0 13.9633 0C6.45953 0 0.373291 6.08624 0.373291 13.59C0.373291 21.0937 6.45953 27.1912 13.9633 27.1912ZM9.21578 18.9675C9.33953 18.5175 9.46328 18.0787 9.59828 17.6287C9.75578 17.1112 9.90203 17.055 10.3745 17.3025C11.1845 17.7187 12.0395 17.955 12.9395 18.0675C13.5133 18.135 14.087 18.0787 14.6158 17.8425C15.617 17.4037 15.7745 16.245 14.9308 15.5475C14.6383 15.3112 14.312 15.1312 13.9745 14.985C13.097 14.6025 12.1858 14.31 11.3533 13.815C10.0145 13.0162 9.15953 11.9025 9.26078 10.2712C9.37328 8.42624 10.4195 7.26749 12.107 6.65999C12.8045 6.40124 12.8045 6.41249 12.8158 5.68124V4.93875C12.827 4.3875 12.9283 4.2975 13.4683 4.275H13.9745C15.1445 4.275 15.1445 4.275 15.1445 5.44499C15.1445 6.26624 15.1445 6.27749 15.9658 6.40124C16.5958 6.50249 17.192 6.68249 17.777 6.94124C18.1033 7.08749 18.2158 7.31249 18.1258 7.64999C17.9795 8.15624 17.8445 8.66249 17.6758 9.15749C17.5183 9.62999 17.372 9.69749 16.922 9.48374C16.0108 9.04499 15.0545 8.85374 14.042 8.90999C13.772 8.92124 13.5245 8.95499 13.277 9.06749C12.4108 9.44999 12.2645 10.4062 13.007 11.0025C13.3783 11.3062 13.8058 11.52 14.2558 11.7C15.0208 12.015 15.797 12.33 16.5395 12.735C18.8683 14.0287 19.4983 16.9537 17.8558 18.945C17.2595 19.665 16.4945 20.1487 15.5833 20.3962C15.1895 20.5087 15.0095 20.7112 15.032 21.1162C15.0545 21.5212 15.032 21.915 15.032 22.32C15.032 22.68 14.852 22.8712 14.492 22.8825C14.0645 22.8937 13.6258 22.8937 13.1983 22.8825C12.8158 22.8712 12.6358 22.6575 12.6358 22.2862C12.6358 21.9937 12.6358 21.7012 12.6245 21.4087C12.6133 20.7675 12.602 20.7337 11.972 20.6325C11.1733 20.5087 10.397 20.3287 9.66578 19.9687C9.11453 19.71 9.05828 19.5637 9.21578 18.9675Z" fill="url(#paint0_linear_1_106377)"/>
<path d="M44.4506 28.3275H42.8644C41.8181 25.1213 39.7706 22.275 37.0369 20.07C37.0369 19.9688 37.0144 19.8563 36.9919 19.755C36.4181 17.7413 37.1269 15.9075 37.9481 14.5913C38.5219 13.6688 37.7794 12.4875 36.6994 12.6225C34.2806 12.9263 32.6157 13.815 31.4682 14.8163C30.6807 15.5025 30.1182 16.425 29.8707 17.4488C28.1382 24.6263 21.6694 29.97 13.9632 29.97C10.2169 29.97 6.77443 28.71 4.01818 26.595C3.06193 28.665 2.54443 30.9263 2.54443 33.3C2.54443 34.5825 2.70193 35.8313 2.99443 37.035C2.99443 37.035 2.99443 37.0575 3.00568 37.0913C3.30943 38.34 3.77068 39.5438 4.35568 40.68C5.13193 42.3563 6.25693 44.3138 7.80943 45.9C10.0482 48.2063 10.4307 51.0638 10.4869 52.3013V52.9088C10.5319 53.5163 11.0382 54 11.6569 54H18.7669C19.4082 54 19.9369 53.4825 19.9369 52.83V51.075C20.9719 51.21 22.0294 51.2888 23.0982 51.2888C23.9419 51.2888 24.7632 51.2438 25.5844 51.1538V52.83C25.5844 53.4713 26.1019 54 26.7544 54H33.8869C34.5281 54 35.0569 53.4825 35.0569 52.83V51.075C35.0681 50.49 35.2706 48.1613 37.4756 46.17L37.7119 45.9675C37.7344 45.945 37.7569 45.9338 37.7794 45.9113C40.2319 43.7288 42.0431 41.0063 42.9769 37.9688H44.4731C45.6656 37.9688 46.6331 37.0013 46.6331 35.8088V30.4875C46.6106 29.295 45.6431 28.3275 44.4506 28.3275ZM35.5519 28.71C34.5732 28.71 33.7857 27.9225 33.7857 26.9438C33.7857 25.965 34.5732 25.1775 35.5519 25.1775C36.5306 25.1775 37.3181 25.965 37.3181 26.9438C37.3181 27.9225 36.5306 28.71 35.5519 28.71Z" fill="url(#paint1_linear_1_106377)"/>
<defs>
<linearGradient id="paint0_linear_1_106377" x1="0.373291" y1="13.5956" x2="27.5533" y2="13.5956" gradientUnits="userSpaceOnUse">
<stop stop-color="#FFD503"/>
<stop offset="1" stop-color="#FFEC8E"/>
</linearGradient>
<linearGradient id="paint1_linear_1_106377" x1="2.54443" y1="33.306" x2="46.6331" y2="33.306" gradientUnits="userSpaceOnUse">
<stop stop-color="#FFD503"/>
<stop offset="1" stop-color="#FFEC8E"/>
</linearGradient>
</defs>
</svg>
