<svg width="14" height="14" viewBox="0 0 14 14" fill="none" xmlns="http://www.w3.org/2000/svg">
<path d="M10.5 14C12.433 14 14 12.433 14 10.5C14 8.567 12.433 7 10.5 7C8.567 7 7 8.567 7 10.5C7 12.433 8.567 14 10.5 14ZM12.1787 9.50725L10.8435 11.7327C10.5924 12.1511 10.0151 12.2222 9.67004 11.8771L8.89645 11.1036C8.70118 10.9083 8.70118 10.5917 8.89645 10.3964C9.09171 10.2012 9.40829 10.2012 9.60355 10.3964L10.1507 10.9436L11.3213 8.99275C11.4633 8.75596 11.7705 8.67918 12.0072 8.82125C12.244 8.96333 12.3208 9.27046 12.1787 9.50725Z" fill="url(#paint0_linear_3465_902)"/>
<path d="M9 3C9 4.65685 7.65685 6 6 6C4.34315 6 3 4.65685 3 3C3 1.34315 4.34315 0 6 0C7.65685 0 9 1.34315 9 3Z" fill="url(#paint1_linear_3465_902)"/>
<path d="M0 11C0 12 1 12 1 12H6.25606C6.09023 11.5308 6 11.026 6 10.5C6 9.14634 6.5977 7.93228 7.54358 7.10733C7.07708 7.03817 6.56399 7 6 7C1 7 0 10 0 11Z" fill="url(#paint2_linear_3465_902)"/>
<defs>
<linearGradient id="paint0_linear_3465_902" x1="-1.04308e-07" y1="7" x2="14" y2="7" gradientUnits="userSpaceOnUse">
<stop stop-color="#FFD503"/>
<stop offset="1" stop-color="#FFEC8E"/>
</linearGradient>
<linearGradient id="paint1_linear_3465_902" x1="-1.04308e-07" y1="7" x2="14" y2="7" gradientUnits="userSpaceOnUse">
<stop stop-color="#FFD503"/>
<stop offset="1" stop-color="#FFEC8E"/>
</linearGradient>
<linearGradient id="paint2_linear_3465_902" x1="-1.04308e-07" y1="7" x2="14" y2="7" gradientUnits="userSpaceOnUse">
<stop stop-color="#FFD503"/>
<stop offset="1" stop-color="#FFEC8E"/>
</linearGradient>
</defs>
</svg>
