<svg width="16" height="16" viewBox="0 0 16 16" fill="none" xmlns="http://www.w3.org/2000/svg">
<path d="M4 0H9.29289C9.55811 0 9.81246 0.105357 10 0.292893L13.7071 4C13.8946 4.18754 14 4.44189 14 4.70711V9H2V2C2 0.895431 2.89543 0 4 0ZM9.5 1.5V3.5C9.5 4.05228 9.94772 4.5 10.5 4.5H12.5L9.5 1.5Z" fill="#092257"/>
<path d="M2 12H14V14C14 15.1046 13.1046 16 12 16H4C2.89543 16 2 15.1046 2 14V12Z" fill="#092257"/>
<path d="M0.5 10C0.223858 10 0 10.2239 0 10.5C0 10.7761 0.223858 11 0.5 11H15.5C15.7761 11 16 10.7761 16 10.5C16 10.2239 15.7761 10 15.5 10H0.5Z" fill="#092257"/>
<path d="M4.54126 5.58908C4.54126 5.48944 4.62204 5.40866 4.72168 5.40866H6.81203L6.03749 4.63412C5.96703 4.56366 5.96703 4.44942 6.03749 4.37896C6.10795 4.3085 6.22219 4.3085 6.29265 4.37896L7.37519 5.4615C7.44565 5.53196 7.44565 5.6462 7.37519 5.71666L6.29265 6.7992C6.22219 6.86966 6.10795 6.86966 6.03749 6.7992C5.96703 6.72874 5.96703 6.6145 6.03749 6.54404L6.81203 5.7695H4.72168C4.62204 5.7695 4.54126 5.68873 4.54126 5.58908Z" fill="#FFD813"/>
<path d="M6.83392 3.71011C6.83392 3.80976 6.75314 3.89053 6.6535 3.89053L4.56315 3.89053L5.33769 4.66507C5.40815 4.73553 5.40815 4.84977 5.33769 4.92023C5.26723 4.99069 5.15299 4.99069 5.08253 4.92023L3.99999 3.83769C3.92953 3.76723 3.92953 3.65299 3.99999 3.58253L5.08253 2.49999C5.15299 2.42953 5.26723 2.42953 5.33769 2.49999C5.40815 2.57045 5.40815 2.68469 5.33769 2.75515L4.56315 3.52969L6.6535 3.52969C6.75314 3.52969 6.83392 3.61046 6.83392 3.71011Z" fill="#FFD813"/>
</svg>
