<svg width="512" height="512" viewBox="0 0 512 512" fill="none" xmlns="http://www.w3.org/2000/svg">
<path fill-rule="evenodd" clip-rule="evenodd" d="M256 0C397.29 0 512 114.71 512 256C512 397.29 397.29 512 256 512C114.71 512 0 397.29 0 256C0 114.71 114.71 0 256 0ZM377.527 134.844C346.881 104.172 306.126 87.273 262.705 87.256C173.237 87.256 100.421 160.044 100.386 249.512C100.374 278.111 107.848 306.028 122.052 330.634L99.024 414.72L185.072 392.156C208.78 405.083 235.473 411.895 262.64 411.907H262.707C352.166 411.907 424.988 339.11 425.024 249.641C425.041 206.283 408.173 165.514 377.527 134.844ZM262.706 384.501H262.652C238.443 384.491 214.699 377.99 193.985 365.702L189.058 362.778L137.997 376.169L151.626 326.4L148.418 321.298C134.913 299.825 127.781 275.005 127.791 249.522C127.821 175.16 188.343 114.661 262.76 114.661C298.795 114.675 332.668 128.723 358.14 154.215C383.612 179.708 397.632 213.594 397.618 249.631C397.588 323.998 337.067 384.5 262.706 384.501ZM336.709 283.491C332.653 281.462 312.713 271.653 308.994 270.3C305.277 268.947 302.574 268.27 299.87 272.329C297.166 276.388 289.393 285.521 287.027 288.227C284.662 290.932 282.296 291.272 278.24 289.241C274.184 287.213 261.116 282.931 245.625 269.117C233.568 258.367 225.428 245.088 223.062 241.03C220.697 236.971 222.81 234.777 224.841 232.755C226.665 230.939 228.896 228.02 230.924 225.652C232.952 223.284 233.628 221.593 234.98 218.888C236.332 216.181 235.656 213.814 234.642 211.784C233.628 209.755 225.517 189.798 222.137 181.68C218.846 173.774 215.502 174.844 213.012 174.72C210.649 174.602 207.943 174.577 205.239 174.577C202.535 174.577 198.142 175.592 194.423 179.651C190.706 183.71 180.229 193.519 180.229 213.475C180.229 233.432 194.762 252.711 196.79 255.418C198.818 258.124 225.389 299.077 266.074 316.639C275.75 320.816 283.305 323.311 289.195 325.18C298.911 328.265 307.752 327.83 314.741 326.786C322.533 325.622 338.737 316.977 342.116 307.507C345.495 298.036 345.495 289.918 344.482 288.227C343.468 286.536 340.764 285.521 336.709 283.491Z" fill="#D9D9D9"/>
<path fill-rule="evenodd" clip-rule="evenodd" d="M256 0C397.29 0 512 114.71 512 256C512 397.29 397.29 512 256 512C114.71 512 0 397.29 0 256C0 114.71 114.71 0 256 0ZM377.527 134.844C346.881 104.172 306.126 87.273 262.705 87.256C173.237 87.256 100.421 160.044 100.386 249.512C100.374 278.111 107.848 306.028 122.052 330.634L99.024 414.72L185.072 392.156C208.78 405.083 235.473 411.895 262.64 411.907H262.707C352.166 411.907 424.988 339.11 425.024 249.641C425.041 206.283 408.173 165.514 377.527 134.844ZM262.706 384.501H262.652C238.443 384.491 214.699 377.99 193.985 365.702L189.058 362.778L137.997 376.169L151.626 326.4L148.418 321.298C134.913 299.825 127.781 275.005 127.791 249.522C127.821 175.16 188.343 114.661 262.76 114.661C298.795 114.675 332.668 128.723 358.14 154.215C383.612 179.708 397.632 213.594 397.618 249.631C397.588 323.998 337.067 384.5 262.706 384.501ZM336.709 283.491C332.653 281.462 312.713 271.653 308.994 270.3C305.277 268.947 302.574 268.27 299.87 272.329C297.166 276.388 289.393 285.521 287.027 288.227C284.662 290.932 282.296 291.272 278.24 289.241C274.184 287.213 261.116 282.931 245.625 269.117C233.568 258.367 225.428 245.088 223.062 241.03C220.697 236.971 222.81 234.777 224.841 232.755C226.665 230.939 228.896 228.02 230.924 225.652C232.952 223.284 233.628 221.593 234.98 218.888C236.332 216.181 235.656 213.814 234.642 211.784C233.628 209.755 225.517 189.798 222.137 181.68C218.846 173.774 215.502 174.844 213.012 174.72C210.649 174.602 207.943 174.577 205.239 174.577C202.535 174.577 198.142 175.592 194.423 179.651C190.706 183.71 180.229 193.519 180.229 213.475C180.229 233.432 194.762 252.711 196.79 255.418C198.818 258.124 225.389 299.077 266.074 316.639C275.75 320.816 283.305 323.311 289.195 325.18C298.911 328.265 307.752 327.83 314.741 326.786C322.533 325.622 338.737 316.977 342.116 307.507C345.495 298.036 345.495 289.918 344.482 288.227C343.468 286.536 340.764 285.521 336.709 283.491Z" fill="url(#paint0_linear_5068_61)"/>
<defs>
<linearGradient id="paint0_linear_5068_61" x1="-3.8147e-06" y1="256" x2="512" y2="256" gradientUnits="userSpaceOnUse">
<stop stop-color="#FFD503"/>
<stop offset="1" stop-color="#FFEC8E"/>
</linearGradient>
</defs>
</svg>
